<svg width="24" height="24" viewBox="0 0 24 24" fill="none" xmlns="http://www.w3.org/2000/svg">
<path d="M3.28814 1.37399C4.76154 0.502218 6.66332 0.989571 7.53521 2.46286L9.49224 5.77145C9.97161 6.58165 9.97594 7.58835 9.50298 8.40231L8.90435 9.43258C8.60807 9.94248 8.66504 10.5786 9.03423 11.0263L9.12505 11.1259L13.2032 15.205C13.6202 15.622 14.25 15.7304 14.7774 15.4882L14.8965 15.4257L15.9278 14.8271C16.6875 14.3857 17.6147 14.3598 18.3936 14.748L18.5577 14.8369L21.8663 16.7949C23.3396 17.6666 23.8276 19.5675 22.9561 21.041C22.8002 21.3045 22.6058 21.5443 22.3799 21.7509C20.7723 23.2211 19.2415 23.8794 17.7901 23.6631C14.8153 23.2195 11.4177 21.1275 7.56646 17.4072L7.55962 17.4121L7.24029 17.0888L6.91802 16.7705C3.20232 12.9129 1.11061 9.51477 0.667047 6.54C0.450626 5.08855 1.10899 3.55782 2.57916 1.95016C2.78568 1.72435 3.0248 1.52985 3.28814 1.37399ZM6.50201 3.07418C5.96762 2.17131 4.80248 1.87201 3.89947 2.40622C3.73798 2.50176 3.59153 2.62127 3.4649 2.75973C2.20233 4.1403 1.70121 5.33484 1.85455 6.36325C2.25259 9.032 4.20842 12.2265 7.76177 15.916L8.17193 16.3232L8.75689 16.8857C12.3069 20.2446 15.3824 22.0901 17.9669 22.4756C18.9953 22.6289 20.1898 22.1278 21.5704 20.8652C21.7087 20.7387 21.8274 20.592 21.9229 20.4306C22.4572 19.5277 22.1587 18.3625 21.2559 17.8281L17.9844 15.8916L17.8585 15.8213C17.4379 15.6116 16.938 15.6273 16.5303 15.8642L15.4493 16.4912L15.2784 16.5781C14.2929 17.0306 13.1259 16.8239 12.3555 16.0537L8.23638 11.9336L8.10845 11.79C7.41854 10.9532 7.31894 9.77199 7.86627 8.83004L8.46587 7.79879C8.72026 7.36059 8.71804 6.81888 8.46002 6.38278L6.50201 3.07418Z" fill="#545458" fill-opacity="0.65"/>
</svg>
