<svg width="30" height="32" viewBox="0 0 30 32" fill="none" xmlns="http://www.w3.org/2000/svg">
<rect width="30" height="32" fill="#F6F6F6"/>
<path d="M0 26.6663V22.9663C0 22.2108 0.177083 21.5108 0.53125 20.8663C0.885417 20.2219 1.375 19.733 2 19.3997C2.29167 19.2441 2.57292 19.0997 2.84375 18.9663C3.13542 18.833 3.4375 18.7108 3.75 18.5997V26.6663H0ZM5 17.333C3.95833 17.333 3.07292 16.9441 2.34375 16.1663C1.61458 15.3886 1.25 14.4441 1.25 13.333C1.25 12.2219 1.61458 11.2775 2.34375 10.4997C3.07292 9.7219 3.95833 9.33301 5 9.33301C6.04167 9.33301 6.92708 9.7219 7.65625 10.4997C8.38542 11.2775 8.75 12.2219 8.75 13.333C8.75 14.4441 8.38542 15.3886 7.65625 16.1663C6.92708 16.9441 6.04167 17.333 5 17.333ZM5 14.6663C5.35417 14.6663 5.64583 14.5441 5.875 14.2997C6.125 14.033 6.25 13.7108 6.25 13.333C6.25 12.9552 6.125 12.6441 5.875 12.3997C5.64583 12.133 5.35417 11.9997 5 11.9997C4.64583 11.9997 4.34375 12.133 4.09375 12.3997C3.86458 12.6441 3.75 12.9552 3.75 13.333C3.75 13.7108 3.86458 14.033 4.09375 14.2997C4.34375 14.5441 4.64583 14.6663 5 14.6663ZM5 26.6663V22.933C5 22.1775 5.17708 21.4886 5.53125 20.8663C5.90625 20.2219 6.39583 19.733 7 19.3997C8.29167 18.7108 9.60417 18.1997 10.9375 17.8663C12.2708 17.5108 13.625 17.333 15 17.333C16.375 17.333 17.7292 17.5108 19.0625 17.8663C20.3958 18.1997 21.7083 18.7108 23 19.3997C23.6042 19.733 24.0833 20.2219 24.4375 20.8663C24.8125 21.4886 25 22.1775 25 22.933V26.6663H5ZM7.5 23.9997H22.5V22.933C22.5 22.6886 22.4375 22.4663 22.3125 22.2663C22.2083 22.0663 22.0625 21.9108 21.875 21.7997C20.75 21.1997 19.6146 20.7552 18.4688 20.4663C17.3229 20.1552 16.1667 19.9997 15 19.9997C13.8333 19.9997 12.6771 20.1552 11.5312 20.4663C10.3854 20.7552 9.25 21.1997 8.125 21.7997C7.9375 21.9108 7.78125 22.0663 7.65625 22.2663C7.55208 22.4663 7.5 22.6886 7.5 22.933V23.9997ZM15 15.9997C13.625 15.9997 12.4479 15.4775 11.4688 14.433C10.4896 13.3886 10 12.133 10 10.6663C10 9.19967 10.4896 7.94412 11.4688 6.89968C12.4479 5.85523 13.625 5.33301 15 5.33301C16.375 5.33301 17.5521 5.85523 18.5312 6.89968C19.5104 7.94412 20 9.19967 20 10.6663C20 12.133 19.5104 13.3886 18.5312 14.433C17.5521 15.4775 16.375 15.9997 15 15.9997ZM15 13.333C15.6875 13.333 16.2708 13.0775 16.75 12.5663C17.25 12.033 17.5 11.3997 17.5 10.6663C17.5 9.93301 17.25 9.31079 16.75 8.79967C16.2708 8.26634 15.6875 7.99967 15 7.99967C14.3125 7.99967 13.7188 8.26634 13.2188 8.79967C12.7396 9.31079 12.5 9.93301 12.5 10.6663C12.5 11.3997 12.7396 12.033 13.2188 12.5663C13.7188 13.0775 14.3125 13.333 15 13.333ZM25 17.333C23.9583 17.333 23.0729 16.9441 22.3438 16.1663C21.6146 15.3886 21.25 14.4441 21.25 13.333C21.25 12.2219 21.6146 11.2775 22.3438 10.4997C23.0729 9.7219 23.9583 9.33301 25 9.33301C26.0417 9.33301 26.9271 9.7219 27.6563 10.4997C28.3854 11.2775 28.75 12.2219 28.75 13.333C28.75 14.4441 28.3854 15.3886 27.6563 16.1663C26.9271 16.9441 26.0417 17.333 25 17.333ZM25 14.6663C25.3542 14.6663 25.6458 14.5441 25.875 14.2997C26.125 14.033 26.25 13.7108 26.25 13.333C26.25 12.9552 26.125 12.6441 25.875 12.3997C25.6458 12.133 25.3542 11.9997 25 11.9997C24.6458 11.9997 24.3438 12.133 24.0938 12.3997C23.8646 12.6441 23.75 12.9552 23.75 13.333C23.75 13.7108 23.8646 14.033 24.0938 14.2997C24.3438 14.5441 24.6458 14.6663 25 14.6663ZM26.25 26.6663V18.5997C26.5625 18.7108 26.8542 18.833 27.125 18.9663C27.4167 19.0997 27.7083 19.2441 28 19.3997C28.625 19.733 29.1146 20.2219 29.4688 20.8663C29.8229 21.5108 30 22.2108 30 22.9663V26.6663H26.25Z" fill="#545458" fill-opacity="0.65"/>
</svg>
