<svg width="26" height="26" viewBox="0 0 26 26" fill="none" xmlns="http://www.w3.org/2000/svg">
<path d="M24.6393 9.41309C24.9582 9.32326 25.2897 9.50916 25.3795 9.82812C25.6905 10.9327 25.8502 12.081 25.8502 13.25C25.8502 19.0508 21.8971 24.0618 16.3512 25.4658C16.03 25.547 15.7039 25.3524 15.6227 25.0312C15.5413 24.71 15.736 24.3841 16.0572 24.3027C21.0736 23.0327 24.65 18.4982 24.65 13.25C24.65 12.1912 24.5055 11.1523 24.2242 10.1533C24.1344 9.83437 24.3203 9.50293 24.6393 9.41309ZM1.87558 9.37012C2.19384 9.46123 2.37835 9.79297 2.28769 10.1113C1.99863 11.1229 1.85023 12.1765 1.85019 13.25C1.85019 18.461 5.37635 22.972 10.3443 24.2773C10.6648 24.3615 10.8572 24.6893 10.773 25.0098C10.6888 25.3303 10.3601 25.5217 10.0396 25.4375C4.54735 23.9944 0.649994 19.0097 0.649994 13.25C0.65003 12.0648 0.813804 10.9008 1.13339 9.78223C1.22443 9.46361 1.55696 9.27908 1.87558 9.37012ZM13.2496 4.25C18.22 4.25 22.2494 8.27962 22.2496 13.25C22.2496 18.2206 18.2202 22.25 13.2496 22.25C8.27922 22.2498 4.2496 18.2204 4.2496 13.25C4.24981 8.27975 8.27935 4.25021 13.2496 4.25ZM13.2496 5.4502C8.94209 5.45041 5.45001 8.94249 5.4498 13.25C5.4498 17.5577 8.94196 21.0506 13.2496 21.0508C17.5574 21.0508 21.0504 17.5578 21.0504 13.25C21.0502 8.94236 17.5573 5.4502 13.2496 5.4502ZM13.2486 0.650391C16.6905 0.650391 19.9125 2.03729 22.2682 4.45117C22.4994 4.68833 22.4945 5.06743 22.2574 5.29883C22.0203 5.53019 21.6412 5.52598 21.4098 5.28906C19.3566 3.18522 16.5789 1.94451 13.5953 1.85547L13.2486 1.85059C10.1347 1.85063 7.22154 3.10431 5.08945 5.28906C4.85801 5.52619 4.47796 5.53026 4.24081 5.29883C4.00396 5.06736 3.99971 4.68823 4.23105 4.45117C6.5867 2.03736 9.808 0.650437 13.2486 0.650391Z" fill="#979797"/>
</svg>
